HIERARCHY
ROOT Hips
{
	OFFSET 0.000000 0.000000 0.000000
	CHANNELS 6 Xposition Yposition Zposition Zrotation Yrotation Xrotation 
	JOINT LHipJoint
	{
		OFFSET 0.000000 0.000000 0.000000
		CHANNELS 3 Zrotation Yrotation Xrotation
		JOINT LeftUpLeg
		{
			OFFSET 1.363060 -1.794630 0.839290
			CHANNELS 3 Zrotation Yrotation Xrotation
			JOINT LeftLeg
			{
				OFFSET 2.448110 -6.726130 0.000000
				CHANNELS 3 Zrotation Yrotation Xrotation
				JOINT LeftFoot
				{
					OFFSET 2.562200 -7.039590 0.000000
					CHANNELS 3 Zrotation Yrotation Xrotation
					JOINT LeftToeBase
					{
						OFFSET 0.157640 -0.433110 2.322550
						CHANNELS 3 Zrotation Yrotation Xrotation
						End Site
						{
							OFFSET 0.000000 0.000000 0.000000
						}
					}
				}
			}
		}
	}
	JOINT RHipJoint
	{
		OFFSET 0.000000 0.000000 0.000000
		CHANNELS 3 Zrotation Yrotation Xrotation
		JOINT RightUpLeg
		{
			OFFSET -1.305520 -1.794630 0.839290
			CHANNELS 3 Zrotation Yrotation Xrotation
			JOINT RightLeg
			{
				OFFSET -2.542530 -6.985550 0.000000
				CHANNELS 3 Zrotation Yrotation Xrotation
				JOINT RightFoot
				{
					OFFSET -2.568260 -7.056230 0.000000
					CHANNELS 3 Zrotation Yrotation Xrotation
					JOINT RightToeBase
					{
						OFFSET -0.164730 -0.452590 2.363150
						CHANNELS 3 Zrotation Yrotation Xrotation
						End Site
						{
							OFFSET 0.000000 0.000000 0.000000
						}
					}
				}
			}
		}
	}
	JOINT LowerBack
	{
		OFFSET 0.000000 0.000000 0.000000
		CHANNELS 3 Zrotation Yrotation Xrotation
		JOINT Spine
		{
			OFFSET 0.028270 2.035590 -0.193380
			CHANNELS 3 Zrotation Yrotation Xrotation
			JOINT Spine1
			{
				OFFSET 0.056720 2.048850 -0.042750
				CHANNELS 3 Zrotation Yrotation Xrotation
				JOINT Neck
				{
					OFFSET 0.000000 0.000000 0.000000
					CHANNELS 3 Zrotation Yrotation Xrotation
					JOINT Neck1
					{
						OFFSET -0.054170 1.746240 0.172020
						CHANNELS 3 Zrotation Yrotation Xrotation
						JOINT Head
						{
							OFFSET 0.104070 1.761360 -0.123970
							CHANNELS 3 Zrotation Yrotation Xrotation
							End Site
							{
								OFFSET 0.000000 0.000000 0.000000
							}
						}
					}
				}
				JOINT LeftShoulder
				{
					OFFSET 0.000000 0.000000 0.000000
					CHANNELS 3 Zrotation Yrotation Xrotation
					JOINT LeftArm
					{
						OFFSET 3.362410 1.200890 -0.311210
						CHANNELS 3 Zrotation Yrotation Xrotation
						JOINT LeftForeArm
						{
							OFFSET 4.983000 -0.000000 -0.000000
							CHANNELS 3 Zrotation Yrotation Xrotation
							JOINT LeftHand
							{
								OFFSET 3.483560 -0.000000 -0.000000
								CHANNELS 3 Zrotation Yrotation Xrotation
								JOINT LeftFingerBase
								{
									OFFSET 0.000000 0.000000 0.000000
									CHANNELS 3 Zrotation Yrotation Xrotation
									JOINT LeftHandIndex1
									{
										OFFSET 0.715260 -0.000000 -0.000000
										CHANNELS 3 Zrotation Yrotation Xrotation
										End Site
										{
											OFFSET 0.000000 0.000000 0.000000
										}
									}
								}
								JOINT LThumb
								{
									OFFSET 0.000000 0.000000 0.000000
									CHANNELS 3 Zrotation Yrotation Xrotation
									End Site
									{
										OFFSET 0.000000 0.000000 0.000000
									}
								}
							}
						}
					}
				}
				JOINT RightShoulder
				{
					OFFSET 0.000000 0.000000 0.000000
					CHANNELS 3 Zrotation Yrotation Xrotation
					JOINT RightArm
					{
						OFFSET -3.136600 1.374050 -0.404650
						CHANNELS 3 Zrotation Yrotation Xrotation
						JOINT RightForeArm
						{
							OFFSET -5.241900 -0.000000 -0.000000
							CHANNELS 3 Zrotation Yrotation Xrotation
							JOINT RightHand
							{
								OFFSET -3.444170 -0.000000 -0.000000
								CHANNELS 3 Zrotation Yrotation Xrotation
								JOINT RightFingerBase
								{
									OFFSET 0.000000 0.000000 0.000000
									CHANNELS 3 Zrotation Yrotation Xrotation
									JOINT RightHandIndex1
									{
										OFFSET -0.622530 -0.000000 -0.000000
										CHANNELS 3 Zrotation Yrotation Xrotation
										End Site
										{
											OFFSET 0.000000 0.000000 0.000000
										}
									}
								}
								JOINT RThumb
								{
									OFFSET 0.000000 0.000000 0.000000
									CHANNELS 3 Zrotation Yrotation Xrotation
									End Site
									{
										OFFSET 0.000000 0.000000 0.000000
									}
								}
							}
						}
					}
				}
			}
		}
	}
}
MOTION
Frames: 8
Frame Time: 0.008333
9.722695 17.882751 34.099701 -179.197776 -1.133108 -155.151488 9.424068 1.634667 -1.781890 -24.793944 -16.486549 -16.552046 -1.212943 4.000397 9.068980 0.818441 -1.434981 -17.689777 5.383100 -13.802700 -42.452700 -13.742613 -3.312523 -1.431131 31.986631 16.326146 -16.478299 1.063121 -3.974686 9.117202 -1.773582 3.794239 -25.899122 -0.290900 3.468300 -9.585300 -1.524322 0.899789 -20.838495 1.493240 -0.175870 -6.063625 -1.115100 -0.736244 10.250836 -10.145771 -0.334918 -2.133051 12.029217 -4.005031 -4.964135 2.687600 -2.870800 -4.434600 15.377584 -2.633116 0.401038 -106.817535 -5.730981 13.760326 9.410587 -9.072015 -0.911673 -1.585681 1.403482 14.949152 20.002468 -9.059395 -3.976400 -7.125000 0.000000 0.000000 -3.627900 19.274000 2.231500 -10.757803 -1.048217 -0.330487 99.802706 -0.432589 5.273633 -9.675198 18.104300 -2.087191 1.155743 4.017882 7.037471 -12.170263 -51.115807 10.583600 7.125000 0.000000 0.000000 75.190500 -76.513800 -61.408900 
9.732312 17.877833 34.056752 -178.516514 -2.063243 -156.276357 9.380917 1.711694 -1.806447 -23.813843 -16.337153 -15.315231 -1.193043 3.842939 9.010178 0.793642 -1.641799 -17.520257 5.236400 -13.645200 -41.834300 -13.818957 -3.324087 -1.429210 33.402227 17.454614 -14.114452 1.189095 -3.591144 8.505655 -1.917362 1.289801 -26.830272 -0.368100 3.897300 -10.788000 -0.717462 0.725032 -20.077362 1.641756 -0.522261 -5.919871 -1.263416 -0.844326 10.432261 -10.187541 -0.294637 -2.129967 12.083383 -3.943030 -4.849074 2.724800 -2.826900 -4.406100 15.344390 -2.629389 0.462402 -106.688837 -5.917482 10.537347 8.899226 -8.350776 -0.797283 -1.414924 1.759620 17.797592 19.789508 -10.868579 -4.746700 -7.125000 0.000000 0.000000 -3.850300 17.050000 2.558000 -10.716051 -1.069301 -0.290650 99.787315 -0.634440 4.281847 -9.360562 17.652966 -1.983498 1.282694 3.978205 7.377323 -13.785402 -50.449577 11.920200 7.125000 0.000000 0.000000 71.860100 -77.053400 -58.833100 
9.725208 17.871058 34.041234 -178.428254 -1.820322 -156.073280 9.394409 1.686043 -1.832664 -23.742930 -16.436688 -15.300259 -1.219273 3.782688 8.839764 0.852329 -1.257458 -17.660899 5.268500 -13.679900 -41.970000 -13.837803 -3.284095 -1.379152 33.349775 17.926888 -14.339398 1.192313 -3.692966 8.664296 -1.922753 1.234825 -26.958780 -0.343800 3.767400 -10.423200 -0.600698 0.856281 -20.470052 1.620175 -0.402389 -5.907119 -1.332343 -0.796424 10.654979 -10.203454 -0.291845 -2.165679 12.097635 -3.936891 -4.830875 2.739300 -2.821500 -4.405000 15.307252 -2.600888 0.495214 -106.584373 -5.926568 7.199799 8.574382 -7.975072 -0.734925 -1.272171 2.057958 21.014797 20.072344 -12.257734 -5.451000 -7.125000 0.000000 0.000000 -3.694900 15.308800 2.593700 -10.687432 -1.122864 -0.274347 99.770172 -0.719773 3.081816 -9.024130 17.151188 -1.871327 1.436200 3.924650 8.063194 -15.399299 -49.699838 13.226500 7.125000 0.000000 0.000000 67.934700 -77.556600 -55.697300 
9.722258 17.868435 34.090193 -179.081365 -1.083043 -154.298345 9.487064 1.505392 -1.872768 -24.361726 -16.630950 -17.531516 -1.223169 4.137125 9.212551 0.826727 -1.345573 -17.802294 5.376700 -13.795900 -42.425800 -13.831353 -3.130744 -1.235345 31.695201 18.216332 -17.396545 1.132806 -4.300575 9.512359 -1.809546 2.394236 -26.619296 -0.341100 3.753200 -10.383400 -1.471600 0.972359 -21.770440 1.483851 -0.175141 -6.131517 -1.164070 -0.778948 10.540214 -10.211027 -0.368106 -2.354497 12.177434 -4.014818 -4.840217 2.752200 -2.867100 -4.341900 15.269852 -2.550811 0.473393 -106.435566 -5.785836 4.494200 8.405901 -7.856698 -0.712980 -1.132636 2.301640 23.431562 20.342077 -13.642212 -6.150500 -7.125000 0.000000 0.000000 -3.575900 13.599400 2.640100 -10.655685 -1.164376 -0.299831 99.791929 -0.730200 1.548348 -8.672870 16.580039 -1.748061 1.597526 3.841787 8.984099 -16.779196 -48.568911 14.243500 7.125000 0.000000 0.000000 62.064800 -77.812900 -50.577500 
9.717449 17.866359 34.064839 -179.196455 -1.280432 -154.434095 9.479931 1.525695 -1.876307 -24.548771 -16.449705 -17.334843 -1.205979 4.107803 9.198857 0.779256 -1.721516 -17.750814 5.406300 -13.827200 -42.549600 -13.815315 -3.141139 -1.249071 31.614167 18.289364 -16.962368 1.143662 -4.214134 9.389984 -1.845903 2.114918 -26.815723 -0.346600 3.783000 -10.467000 -1.525422 0.881893 -21.861519 1.468991 -0.253626 -6.094915 -1.177599 -0.813115 10.714463 -10.227533 -0.288300 -2.324218 12.089377 -3.890264 -4.750520 2.729400 -2.790200 -4.334800 15.272413 -2.466168 0.490781 -106.201769 -5.267753 4.925751 8.418250 -7.892929 -0.719176 -1.123771 2.352823 22.501676 20.201149 -14.513813 -6.469900 -7.125000 0.000000 0.000000 -3.739300 12.609700 2.839000 -10.640209 -1.231180 -0.270688 99.788851 -0.787428 0.222004 -8.303908 16.009239 -1.626150 1.727833 3.765828 9.494585 -18.121686 -47.534719 15.213900 7.125000 0.000000 0.000000 56.454500 -77.996400 -45.731800 
9.704117 17.854447 34.047245 -178.984651 -0.974442 -154.060555 9.554209 1.498991 -1.917686 -24.371370 -16.577089 -17.508060 -1.234524 4.072938 9.053723 0.840944 -1.259475 -17.841723 5.278500 -13.690800 -42.012600 -13.963439 -3.143268 -1.177411 31.714380 18.810209 -17.527631 1.114520 -4.458028 9.791796 -1.208815 0.352113 -22.242840 -2.073700 9.018000 -25.851700 -1.243209 1.135122 -22.509925 1.400005 -0.046572 -6.067634 -1.291507 -0.720915 11.042295 -10.419087 -0.247058 -2.643258 12.204052 -3.736964 -4.388266 2.806600 -2.672000 -4.124800 15.314270 -2.295643 0.466356 -105.741439 -4.172070 10.489925 8.833326 -8.395350 -0.802264 -1.366976 1.995823 16.641505 19.708197 -13.600228 -5.866900 -7.125000 0.000000 0.000000 -4.044200 13.878000 2.963600 -10.652762 -1.324532 -0.248334 99.789508 -0.690444 -1.107958 -7.899501 15.404497 -1.506627 1.953314 3.647479 10.113597 -20.731957 -46.151501 17.165500 7.125000 0.000000 0.000000 47.965200 -78.458000 -38.739400 
9.700182 17.854884 34.034896 -178.940791 -0.866362 -154.117185 9.556976 1.510783 -1.922344 -24.391517 -16.644934 -17.209820 -1.250777 3.973644 8.844203 0.873441 -1.011301 -17.832697 5.201100 -13.606800 -41.684500 -13.969636 -3.125516 -1.166094 31.724623 19.072696 -17.403679 1.119182 -4.483515 9.863278 -1.225399 0.216957 -22.394386 -2.096900 9.065100 -25.999300 -1.253988 1.204545 -22.486775 1.362952 0.068060 -6.043030 -1.327134 -0.674121 11.106882 -10.266295 -0.260331 -2.943268 12.129646 -3.665240 -4.107970 2.708100 -2.620100 -3.951500 15.283741 -2.244233 0.487090 -105.445142 -4.147075 8.348859 8.499577 -7.896073 -0.711881 -1.299583 1.890455 18.900825 19.269941 -11.947789 -5.060800 -7.125000 0.000000 0.000000 -4.286200 15.828900 2.963000 -10.617274 -1.324852 -0.231330 99.862332 -0.639340 -2.720665 -7.561910 14.853075 -1.395469 2.049312 3.593660 10.966683 -21.296282 -45.695513 17.542800 7.125000 0.000000 0.000000 45.397800 -78.452100 -36.532400 
9.697778 17.854228 34.027683 -178.960439 -0.835241 -154.060796 9.551482 1.503163 -1.921376 -24.413824 -16.695385 -17.164174 -1.261008 3.930894 8.732344 0.890992 -0.867738 -17.833226 5.348200 -13.765500 -42.306200 -13.980725 -3.121233 -1.148599 31.669458 19.170548 -17.511744 1.120758 -4.537170 9.968820 -1.228910 0.103702 -22.458777 -2.111900 9.095500 -26.094400 -1.340930 1.097857 -22.543439 1.445363 -0.088916 -6.078744 -1.106671 -0.751937 11.077731 -10.428326 -0.124773 -2.970951 12.036309 -3.469521 -4.090311 2.696900 -2.512000 -3.945400 15.243541 -2.200822 0.512699 -105.546904 -3.990078 5.324521 8.184309 -7.496392 -0.645575 -1.208265 2.045956 21.583739 19.424085 -12.316846 -5.282200 -7.125000 0.000000 0.000000 -4.175600 15.324600 2.931500 -10.556313 -1.350434 -0.227064 99.533319 -0.733016 -3.748968 -7.294222 14.400356 -1.310544 2.123008 3.591551 11.700997 -21.636712 -45.854180 17.881000 7.125000 0.000000 0.000000 45.839100 -78.702300 -37.118000 
